# xmcd
# 
# Track frame offsets:
#     150
#     14246
#     24926
#     39416
#     57490
#     72750
#     92840
#     113099
#     133468
#     151183
#     166719
#     183140
#     199501
# 
# Disc length: 2961
# 
# Revision: 1
# Processed by: cddbd v1.5.2PL0 Copyright (c) Steve Scherf et al.
# Submitted via: fre:ac v1.0.31
# 
DISCID=a60b8f0d
DTITLE=James Gallagher - Street Ballads
DYEAR=0
DGENRE=Folk
TTITLE0=I am a Rover
TTITLE1=Flower of Sweet Strabane
TTITLE2=Mac Pherson's Lament
TTITLE3=Skibbereen
TTITLE4=Cooked Jack
TTITLE5=The Dutchman
TTITLE6=Dirty Old Town
TTITLE7=Peggy Gordon
TTITLE8=The Dying Rebel
TTITLE9=England's Motorway
TTITLE10=Mary from Dungloe
TTITLE11=The Patriots Game
TTITLE12=Bunclody
EXTD=
EXTT0=
EXTT1=
EXTT2=
EXTT3=
EXTT4=
EXTT5=
EXTT6=
EXTT7=
EXTT8=
EXTT9=
EXTT10=
EXTT11=
EXTT12=
PLAYORDER=
